<svg xmlns="http://www.w3.org/2000/svg" viewBox="0 0 64 64"><defs><style>.cls-1{fill:#fff;opacity:0;}.cls-2,.cls-3{fill:none;stroke:#222;stroke-width:2px;}.cls-2{stroke-miterlimit:10;}.cls-3{stroke-linecap:round;stroke-linejoin:round;}.cls-4{fill:#888;}</style></defs><g id="Layer_2" data-name="Layer 2"><g id="Layer_1-2" data-name="Layer 1"><rect class="cls-1" width="64" height="64"/><path class="cls-2" d="M25.71,53.76H14.51a3.64,3.64,0,0,1-3.33-3.87V28.23a3.64,3.64,0,0,1,3.33-3.87h9"/><path class="cls-3" d="M50,47.76V51a2.79,2.79,0,0,1-2.78,2.78H25.91A2.78,2.78,0,0,1,23.14,51V13a2.78,2.78,0,0,1,2.77-2.78H47.25A2.79,2.79,0,0,1,50,13V27.75"/><path class="cls-4" d="M54.66,31.07a4.15,4.15,0,0,0-4.15,4.16,4.16,4.16,0,1,0-8.31,0h-.05c0,5.12,8.31,9,8.31,9h0s6.55-3,8-7.3a4.15,4.15,0,0,0-3.81-5.82Z"/><line class="cls-3" x1="30.12" y1="17.59" x2="43.05" y2="17.59"/><line class="cls-3" x1="30.12" y1="24.79" x2="43.05" y2="24.79"/><line class="cls-3" x1="16.5" y1="32" x2="23.14" y2="32"/><line class="cls-3" x1="16.5" y1="39.19" x2="23.14" y2="39.19"/><line class="cls-3" x1="16.5" y1="46.4" x2="23.14" y2="46.4"/><line class="cls-3" x1="30.12" y1="31.99" x2="37.35" y2="31.99"/><line class="cls-3" x1="30.12" y1="39.19" x2="38.84" y2="39.19"/><line class="cls-3" x1="30.12" y1="46.4" x2="42.91" y2="46.4"/></g></g></svg>