<svg xmlns="http://www.w3.org/2000/svg" width="64" height="64" viewBox="0 0 64 64">
    <defs>
        <style>
            .cls-2{fill:none;stroke:#000;stroke-linecap:round;stroke-linejoin:round;stroke-width:2px}.cls-3{fill:#888}
        </style>
    </defs>
    <g id="icon_06">
        <g id="그룹_3239" transform="translate(-4135.138 -981.87)">
            <g id="그룹_3238">
                <g id="그룹_3236">
                    <path id="패스_4539" d="M4146.139 1013.919v-11.952c0-4.774 5.1-5.1 5.1-5.1h23.492s5.1.323 5.1 5.1v11.952s.251 5.385-5.384 5.385h-16.081l-5.711 5.828.043-5.828h-1.168c-5.642-.004-5.391-5.385-5.391-5.385z" class="cls-2"/>
                </g>
                <g id="그룹_3237">
                    <path id="패스_4540" d="M4185.8 1011.76s3.569.226 3.569 3.569v8.369a3.554 3.554 0 0 1-3.77 3.77h-.818v4.08l-3.965-4.08h-11.259a3.553 3.553 0 0 1-3.77-3.77s.057-4.394 0-4.394" class="cls-2"/>
                </g>
            </g>
            <circle id="타원_153" cx="2.5" cy="2.5" r="2.5" class="cls-3" transform="translate(4152.267 1005.433)"/>
            <circle id="타원_154" cx="2.5" cy="2.5" r="2.5" class="cls-3" transform="translate(4160.345 1005.433)"/>
            <circle id="타원_155" cx="2.5" cy="2.5" r="2.5" class="cls-3" transform="translate(4168.423 1005.433)"/>
        </g>
    </g>
</svg>
