<svg xmlns="http://www.w3.org/2000/svg" viewBox="0 0 64 64"><defs><style>.cls-1{fill:#fff;opacity:0;}.cls-2{fill:none;stroke:#000;stroke-linecap:round;stroke-linejoin:round;stroke-width:2px;}.cls-3{fill:#888;}</style></defs><g id="Layer_2" data-name="Layer 2"><g id="Layer_1-2" data-name="Layer 1"><rect class="cls-1" width="64" height="64"/><path class="cls-2" d="M22.26,43.4v8.8a4.7,4.7,0,0,0,5,5H48.5a4.7,4.7,0,0,0,5-5V11.53c0-4.42-4.72-4.72-4.72-4.72H27s-4.72.3-4.72,4.72v5"/><path class="cls-2" d="M41.74,38.41V27.33C41.74,22.9,37,22.6,37,22.6H15.23s-4.72.3-4.72,4.73V38.41a4.7,4.7,0,0,0,5,5H30.41v5.41l5.26-5.41h1.08A4.7,4.7,0,0,0,41.74,38.41Z"/><path class="cls-3" d="M29.47,28.06a3.32,3.32,0,0,0-3.33,3.32,3.32,3.32,0,0,0-6.64,0h0c0,4.09,6.64,7.16,6.65,7.16h0s5.23-2.43,6.4-5.84a3.22,3.22,0,0,0,.28-1.32A3.32,3.32,0,0,0,29.47,28.06Z"/><line class="cls-2" x1="22.25" y1="12.79" x2="53.49" y2="12.79"/></g></g></svg>