<svg xmlns="http://www.w3.org/2000/svg" id="icon_05" width="64" height="64" viewBox="0 0 64 64">
    <defs>
        <style>
            .cls-2,.cls-3{fill:#888;stroke:#888;stroke-width:2px}.cls-3{stroke-linecap:round;stroke-linejoin:round}
        </style>
    </defs>
    <g id="그룹_3240" transform="translate(-4583.95 -971.419)">
        <g id="그룹_3243" transform="translate(0 -4.709)">
            <path id="패스_4542" d="M4661 1016.867a3.584 3.584 0 1 1 3.583-3.584 3.584 3.584 0 0 1-3.583 3.584z" class="cls-2" transform="translate(-30.114 -12.572)"/>
            <path id="패스_4543" d="M4659.768 1025.417c6.179 0 6.52 6.076 6.52 6.076v6.076h-11.47v-10.026a6.051 6.051 0 0 1 4.95-2.126z" class="cls-3" transform="translate(-28.881 -18.029)"/>
            <path id="패스_4544" d="M4603.119 1016.867a3.584 3.584 0 1 0-3.584-3.584 3.584 3.584 0 0 0 3.584 3.584z" class="cls-2" transform="translate(-2.65 -12.572)"/>
            <path id="패스_4545" d="M4600.469 1025.417c-6.178 0-6.52 6.076-6.52 6.076v6.076h11.47v-10.026a6.052 6.052 0 0 0-4.95-2.126z" class="cls-3" transform="translate(0 -18.029)"/>
        </g>
        <circle id="타원_156" cx="5.5" cy="5.5" r="5.5" fill="none" stroke="#222" stroke-width="2px" transform="translate(4609.949 986.418)"/>
        <path id="패스_4541" fill="none" stroke="#000" stroke-linecap="round" stroke-linejoin="round" stroke-width="2px" d="M4626.034 1012.153c-9.722 0-10.259 9.561-10.259 9.561v9.561h20.518v-9.561s-.537-9.561-10.259-9.561z" transform="translate(-10.356 -11.736)"/>
    </g>
</svg>
