<svg xmlns="http://www.w3.org/2000/svg" width="72" height="60" viewBox="0 0 72 60">
    <defs>
        <style>
            .cls-2{fill:#ffbf00}.cls-3{fill:#e60000}.cls-4{fill:#ff5c00}.cls-5{fill:#fff}
        </style>
    </defs>
    <g id="new_logo" transform="translate(-170.145 -155.059)">
        <g id="그룹_4103" transform="translate(171.143 155.059)">
            <path id="패스_5715" d="M270.43 188.975c1.178-3.71-.41-7.317-3.35-10.505-.272-.292-.569-.618-.895-.972-.075.276-.155.554-.246.836a12.083 12.083 0 0 0-.668 3.61c.067 3.229 1.621 6.009 3.28 8.838.188.317.363.639.539.963.058-.122.117-.236.18-.355a23.789 23.789 0 0 0 1.161-2.415" class="cls-2" transform="translate(-201.714 -162.347)"/>
            <path id="패스_5716" d="M209.068 213.49c-4.424-.719-11.134-1.31-16.585-2.526a28.45 28.45 0 0 1-3.2-.9c1.007.965 2.2 2.057 2.874 2.561a28.971 28.971 0 0 0 13.691 5.715c6.889.923 15.374.907 21.595-1.2.418-.144.836-.3 1.24-.459-.652-.04-1.3-.088-1.959-.153-6.575-.631-13.435-2.359-17.651-3.045" class="cls-2" transform="translate(-177.033 -172.925)"/>
            <path id="패스_5717" d="M254.645 166.282c1.889 1.765 3.731 3.741 5.113 5.243a9.639 9.639 0 0 0-1.432-8.827c-2.528-3.361-7.88-4.122-12.609-3.269-.046.013-.13.027-.234.05.325.18.643.368.952.562a51.406 51.406 0 0 1 8.209 6.242" class="cls-3" transform="translate(-195.288 -156.373)"/>
            <path id="패스_5718" d="M249.02 212.306a11.2 11.2 0 0 1-1.4.656c.848.053 1.684.085 2.507.09 7.315.04 13.544-1.945 14.5-9.086a7.256 7.256 0 0 0-.322-3.176 13.336 13.336 0 0 0-.948-2.193 22.77 22.77 0 0 1-1.617 2.653 40.076 40.076 0 0 1-12.721 11.056" class="cls-3" transform="translate(-195.983 -169.199)"/>
            <path id="패스_5719" d="M181.888 198.475c-5.205-5.325-6.429-11.7-4.462-17.477a14.28 14.28 0 0 1 .9-2.083 25.431 25.431 0 0 0-2.127 1.415c-6.756 5.043-7.023 10.882.881 16.5a27.184 27.184 0 0 0 6.142 3.06c.05.017.109.036.159.057-.618-.6-1.174-1.144-1.5-1.475" class="cls-3" transform="translate(-171.143 -162.807)"/>
            <path id="패스_5720" d="M205.683 163.129c8.364-2.442 16.669-4.424 17.045-4.51.271-.063 1.5-.337 2.068-.456a24.471 24.471 0 0 0-8.79-2.851c-8.465-1.164-14.785 1.848-21.529 5.421-5.564 2.947-10.273 5.874-12.691 10.433a37.706 37.706 0 0 1 5.844-2.789c3-1.155 13.958-4.055 18.053-5.249" class="cls-2" transform="translate(-174.6 -155.059)"/>
            <path id="패스_5721" d="M240.575 184.987c-1.659-2.829-3.213-5.609-3.28-8.838a12.083 12.083 0 0 1 .668-3.61c.092-.282.176-.56.246-.836-1.383-1.5-3.221-3.478-5.113-5.243a51.4 51.4 0 0 0-8.209-6.242c-.309-.194-.627-.382-.952-.562-.569.119-1.8.393-2.068.456-.376.086-8.681 2.068-17.045 4.51-4.09 1.194-15.053 4.094-18.053 5.249a37.707 37.707 0 0 0-5.844 2.789 14.28 14.28 0 0 0-.9 2.083c-1.968 5.78-.743 12.153 4.462 17.477.321.33.877.879 1.5 1.475a28.46 28.46 0 0 0 3.2.9c5.452 1.216 12.161 1.807 16.585 2.526 4.216.687 11.076 2.415 17.651 3.045.656.065 1.308.113 1.955.153a10.931 10.931 0 0 0 1.4-.656A40.076 40.076 0 0 0 239.5 188.6a22.769 22.769 0 0 0 1.617-2.653c-.176-.324-.351-.646-.539-.963" class="cls-4" transform="translate(-173.739 -156.552)"/>
            <path id="패스_5722" d="M192.769 182.944h.723c.814 0 1.742.088 1.742 1.061 0 .917-.9 1.045-1.763 1.045h-.7zm-2.365 3.8h3.743c1.587 0 3.451-.452 3.451-2.595a1.9 1.9 0 0 0-1.788-1.976v-.03a2.024 2.024 0 0 0 1.558-2.095c0-1.542-1.233-2.273-2.878-2.273h-4.09zm2.365-7.271h.685c.794 0 1.554.077 1.554.9 0 .754-.8.949-1.579.949h-.66z" class="cls-5" transform="translate(-177.399 -162.437)"/>
            <path id="패스_5723" d="M206.716 183.137h-2.223l1.145-3.507h.02zm-5.874 3.608h2.406l.7-1.914h3.326l.66 1.914h2.595l-3.422-8.968h-2.9z" class="cls-5" transform="translate(-180.789 -162.437)"/>
            <path id="패스_5724" d="M215.883 177.777h3.017l3 6.091h.025l-.034-6.091h2.156v8.967h-2.937l-3.1-6.127h-.025l.075 6.127h-2.172z" class="cls-5" transform="translate(-185.674 -162.437)"/>
            <path id="패스_5725" d="M232.337 179.55h.919a2.713 2.713 0 1 1 0 5.425h-.919zm-2.365 7.194h3.23c3.024 0 5.251-1.17 5.251-4.519 0-3.473-2.16-4.449-5.251-4.449h-3.23z" class="cls-5" transform="translate(-190.25 -162.437)"/>
            <path id="패스_5726" d="M247.618 183.137h-2.226l1.145-3.507h.025zm-5.878 3.608h2.4l.7-1.914h3.33l.66 1.914h2.6l-3.421-8.968h-2.9z" class="cls-5" transform="translate(-194.072 -162.437)"/>
            <path id="사각형_13709" d="M0 0H2.364V8.967H0z" class="cls-5" transform="translate(57.72 15.34)"/>
            <path id="패스_5727" d="M190.4 193.947h3.046l3.029 6.093h.029l-.042-6.093h2.185v8.965h-2.97l-3.129-6.124h-.025l.075 6.124h-2.2z" class="cls-5" transform="translate(-177.399 -167.689)"/>
            <path id="패스_5728" d="M209.266 199.307h-2.248l1.153-3.511h.025zm-5.937 3.606h2.431l.7-1.91h3.367l.664 1.91h2.628l-3.459-8.966h-2.929z" class="cls-5" transform="translate(-181.597 -167.689)"/>
            <path id="패스_5729" d="M218.531 193.947h3.769l1.55 5.962h.029l1.642-5.962h3.622v8.965h-2.34l.042-6.883h-.029l-1.939 6.883h-2.193l-1.842-6.883h-.021l.046 6.883h-2.34z" class="cls-5" transform="translate(-186.534 -167.689)"/>
            <path id="패스_5730" d="M243.252 202.638a10.153 10.153 0 0 1-2.662.361c-2.394 0-5.155-1.209-5.155-4.6 0-3.121 2.185-4.679 5.139-4.679a9.308 9.308 0 0 1 2.661.464l-.192 1.939a4.74 4.74 0 0 0-2.34-.629 2.87 2.87 0 1 0 .192 5.736 6.377 6.377 0 0 0 2.236-.466z" class="cls-5" transform="translate(-192.024 -167.615)"/>
            <path id="패스_5731" d="M250.019 198.359c0-1.556.576-2.868 2.03-2.868s2.03 1.312 2.03 2.868c0 1.475-.581 2.868-2.03 2.868s-2.03-1.394-2.03-2.868m-2.469 0c0 2.851 1.566 4.639 4.5 4.639s4.495-1.788 4.495-4.639c0-2.876-1.541-4.641-4.495-4.641s-4.5 1.765-4.5 4.641" class="cls-5" transform="translate(-195.959 -167.615)"/>
        </g>
        <g id="그룹_4104" transform="translate(171.143 155.059)">
            <path id="패스_5732" d="M270.43 188.975c1.178-3.71-.41-7.317-3.35-10.505-.272-.292-.569-.618-.895-.972-.075.276-.155.554-.246.836a12.083 12.083 0 0 0-.668 3.61c.067 3.229 1.621 6.009 3.28 8.838.188.317.363.639.539.963.058-.122.117-.236.18-.355a23.789 23.789 0 0 0 1.161-2.415" class="cls-2" transform="translate(-201.714 -162.347)"/>
            <path id="패스_5733" d="M209.068 213.49c-4.424-.719-11.134-1.31-16.585-2.526a28.45 28.45 0 0 1-3.2-.9c1.007.965 2.2 2.057 2.874 2.561a28.971 28.971 0 0 0 13.691 5.715c6.889.923 15.374.907 21.595-1.2.418-.144.836-.3 1.24-.459-.652-.04-1.3-.088-1.959-.153-6.575-.631-13.435-2.359-17.651-3.045" class="cls-2" transform="translate(-177.033 -172.925)"/>
            <path id="패스_5734" d="M254.645 166.282c1.889 1.765 3.731 3.741 5.113 5.243a9.639 9.639 0 0 0-1.432-8.827c-2.528-3.361-7.88-4.122-12.609-3.269-.046.013-.13.027-.234.05.325.18.643.368.952.562a51.406 51.406 0 0 1 8.209 6.242" class="cls-3" transform="translate(-195.288 -156.373)"/>
            <path id="패스_5735" d="M249.02 212.306a11.2 11.2 0 0 1-1.4.656c.848.053 1.684.085 2.507.09 7.315.04 13.544-1.945 14.5-9.086a7.256 7.256 0 0 0-.322-3.176 13.336 13.336 0 0 0-.948-2.193 22.77 22.77 0 0 1-1.617 2.653 40.076 40.076 0 0 1-12.721 11.056" class="cls-3" transform="translate(-195.983 -169.199)"/>
            <path id="패스_5736" d="M181.888 198.475c-5.205-5.325-6.429-11.7-4.462-17.477a14.28 14.28 0 0 1 .9-2.083 25.431 25.431 0 0 0-2.127 1.415c-6.756 5.043-7.023 10.882.881 16.5a27.184 27.184 0 0 0 6.142 3.06c.05.017.109.036.159.057-.618-.6-1.174-1.144-1.5-1.475" class="cls-3" transform="translate(-171.143 -162.807)"/>
            <path id="패스_5737" d="M205.683 163.129c8.364-2.442 16.669-4.424 17.045-4.51.271-.063 1.5-.337 2.068-.456a24.471 24.471 0 0 0-8.79-2.851c-8.465-1.164-14.785 1.848-21.529 5.421-5.564 2.947-10.273 5.874-12.691 10.433a37.706 37.706 0 0 1 5.844-2.789c3-1.155 13.958-4.055 18.053-5.249" class="cls-2" transform="translate(-174.6 -155.059)"/>
            <path id="패스_5738" d="M240.575 184.987c-1.659-2.829-3.213-5.609-3.28-8.838a12.083 12.083 0 0 1 .668-3.61c.092-.282.176-.56.246-.836-1.383-1.5-3.221-3.478-5.113-5.243a51.4 51.4 0 0 0-8.209-6.242c-.309-.194-.627-.382-.952-.562-.569.119-1.8.393-2.068.456-.376.086-8.681 2.068-17.045 4.51-4.09 1.194-15.053 4.094-18.053 5.249a37.707 37.707 0 0 0-5.844 2.789 14.28 14.28 0 0 0-.9 2.083c-1.968 5.78-.743 12.153 4.462 17.477.321.33.877.879 1.5 1.475a28.46 28.46 0 0 0 3.2.9c5.452 1.216 12.161 1.807 16.585 2.526 4.216.687 11.076 2.415 17.651 3.045.656.065 1.308.113 1.955.153a10.931 10.931 0 0 0 1.4-.656A40.076 40.076 0 0 0 239.5 188.6a22.769 22.769 0 0 0 1.617-2.653c-.176-.324-.351-.646-.539-.963" class="cls-4" transform="translate(-173.739 -156.552)"/>
            <path id="패스_5739" d="M192.769 182.944h.723c.814 0 1.742.088 1.742 1.061 0 .917-.9 1.045-1.763 1.045h-.7zm-2.365 3.8h3.743c1.587 0 3.451-.452 3.451-2.595a1.9 1.9 0 0 0-1.788-1.976v-.03a2.024 2.024 0 0 0 1.558-2.095c0-1.542-1.233-2.273-2.878-2.273h-4.09zm2.365-7.271h.685c.794 0 1.554.077 1.554.9 0 .754-.8.949-1.579.949h-.66z" class="cls-5" transform="translate(-177.399 -162.437)"/>
            <path id="패스_5740" d="M206.716 183.137h-2.223l1.145-3.507h.02zm-5.874 3.608h2.406l.7-1.914h3.326l.66 1.914h2.595l-3.422-8.968h-2.9z" class="cls-5" transform="translate(-180.789 -162.437)"/>
            <path id="패스_5741" d="M215.883 177.777h3.017l3 6.091h.025l-.034-6.091h2.156v8.967h-2.937l-3.1-6.127h-.025l.075 6.127h-2.172z" class="cls-5" transform="translate(-185.674 -162.437)"/>
            <path id="패스_5742" d="M232.337 179.55h.919a2.713 2.713 0 1 1 0 5.425h-.919zm-2.365 7.194h3.23c3.024 0 5.251-1.17 5.251-4.519 0-3.473-2.16-4.449-5.251-4.449h-3.23z" class="cls-5" transform="translate(-190.25 -162.437)"/>
            <path id="패스_5743" d="M247.618 183.137h-2.226l1.145-3.507h.025zm-5.878 3.608h2.4l.7-1.914h3.33l.66 1.914h2.6l-3.421-8.968h-2.9z" class="cls-5" transform="translate(-194.072 -162.437)"/>
            <path id="사각형_13710" d="M0 0H2.364V8.967H0z" class="cls-5" transform="translate(57.72 15.34)"/>
            <path id="패스_5744" d="M190.4 193.947h3.046l3.029 6.093h.029l-.042-6.093h2.185v8.965h-2.97l-3.129-6.124h-.025l.075 6.124h-2.2z" class="cls-5" transform="translate(-177.399 -167.689)"/>
            <path id="패스_5745" d="M209.266 199.307h-2.248l1.153-3.511h.025zm-5.937 3.606h2.431l.7-1.91h3.367l.664 1.91h2.628l-3.459-8.966h-2.929z" class="cls-5" transform="translate(-181.597 -167.689)"/>
            <path id="패스_5746" d="M218.531 193.947h3.769l1.55 5.962h.029l1.642-5.962h3.622v8.965h-2.34l.042-6.883h-.029l-1.939 6.883h-2.193l-1.842-6.883h-.021l.046 6.883h-2.34z" class="cls-5" transform="translate(-186.534 -167.689)"/>
            <path id="패스_5747" d="M243.252 202.638a10.153 10.153 0 0 1-2.662.361c-2.394 0-5.155-1.209-5.155-4.6 0-3.121 2.185-4.679 5.139-4.679a9.308 9.308 0 0 1 2.661.464l-.192 1.939a4.74 4.74 0 0 0-2.34-.629 2.87 2.87 0 1 0 .192 5.736 6.377 6.377 0 0 0 2.236-.466z" class="cls-5" transform="translate(-192.024 -167.615)"/>
            <path id="패스_5748" d="M250.019 198.359c0-1.556.576-2.868 2.03-2.868s2.03 1.312 2.03 2.868c0 1.475-.581 2.868-2.03 2.868s-2.03-1.394-2.03-2.868m-2.469 0c0 2.851 1.566 4.639 4.5 4.639s4.495-1.788 4.495-4.639c0-2.876-1.541-4.641-4.495-4.641s-4.5 1.765-4.5 4.641" class="cls-5" transform="translate(-195.959 -167.615)"/>
        </g>
        <g id="그룹_4105" transform="translate(184.144 204.338)">
            <path id="패스_5749" d="M202.315 233.4c0 3.146 1.876 5.359 5.038 5.359s5.038-2.212 5.038-5.359c0-3.074-1.893-5.362-5.038-5.362s-5.038 2.288-5.038 5.362m1.571 0c0-2.107 1.178-4.069 3.468-4.054 2.285-.015 3.463 1.947 3.463 4.054 0 2.062-1.074 4.053-3.463 4.053s-3.468-1.991-3.468-4.053" class="cls-3" transform="translate(-194.268 -228.042)"/>
            <path id="패스_5750" d="M232.31 228.308h5.7v1.308h-4.219v2.962h4.044v1.305h-4.044v3.48h4.219v1.31h-5.7z" class="cls-3" transform="translate(-204.01 -228.129)"/>
            <path id="패스_5751" d="M242.285 238.673h1.554l1.024-2.615h4.937l1.028 2.615h1.608l-4.3-10.365h-1.517zm7.061-3.831h-4.02l2.009-5.139 2.01 5.139" class="cls-3" transform="translate(-207.25 -228.128)"/>
            <path id="패스_5752" d="M190.4 228.308h1.483v4.506l4.374-4.506h1.976l-4.821 4.848 5.205 5.517h-2.168l-4.566-5.13v5.13H190.4z" class="cls-3" transform="translate(-190.398 -228.129)"/>
            <path id="패스_5753" d="M219.243 228.308h2.536c2.156 0 4.027.221 4.027 2.808a2.325 2.325 0 0 1-2.034 2.361v.031c.46.176.639.4.97 1.038l1.9 4.128h-1.692l-1.529-3.593c-.43-1.04-.948-1.008-1.737-1.008h-.953v4.6h-1.483zm1.483 4.455h1.262c1.412 0 2.243-.622 2.243-1.618 0-1.04-.61-1.531-2.08-1.531h-1.425z" class="cls-3" transform="translate(-199.766 -228.128)"/>
        </g>
    </g>
</svg>
