<svg xmlns="http://www.w3.org/2000/svg" viewBox="0 0 64 64"><defs><style>.cls-1{fill:#fff;opacity:0;}.cls-2{fill:none;stroke:#000;stroke-linecap:round;stroke-linejoin:round;stroke-width:2px;}.cls-3{fill:#888;}</style></defs><g id="Layer_2" data-name="Layer 2"><g id="Layer_1-2" data-name="Layer 1"><rect class="cls-1" width="64" height="64"/><rect class="cls-2" x="40.26" y="6.75" width="6.38" height="13.9"/><polyline class="cls-2" points="40.26 11.54 26.73 11.54 23.39 15.31"/><path class="cls-3" d="M27,27.09h0A10.66,10.66,0,0,0,23,20a10.68,10.68,0,0,0-4,7.08h0a2.4,2.4,0,0,0,0,.4,4,4,0,1,0,8,0S27,27.35,27,27.09Z"/><path class="cls-2" d="M31.59,42.06V39.31L21.52,37.65a8,8,0,0,0-6.16,0l-5,3.22v9.47l5.79-1.75H30.34s2-.09,4.5-3l4.78-5.1s.74-2.85-2.11-2.39l-7.44,5-7.54-.65"/><path class="cls-2" d="M33.31,33.1V23.27a2.62,2.62,0,0,1,2.62-2.62H51a2.62,2.62,0,0,1,2.62,2.62V54.63A2.62,2.62,0,0,1,51,57.25h-15a2.62,2.62,0,0,1-2.62-2.62V47.14"/></g></g></svg>