<svg xmlns="http://www.w3.org/2000/svg" id="icon_03" width="64" height="64" viewBox="0 0 64 64">
    <defs>
        <style>
            .cls-2{fill:none;stroke:#000;stroke-linecap:round;stroke-linejoin:round;stroke-width:2px}
        </style>
    </defs>
    <g id="그룹_3228" transform="translate(-4163.45 -478.125)">
        <g id="그룹_3225">
            <path id="패스_4522" fill="none" stroke="#888" stroke-linecap="round" stroke-linejoin="round" stroke-width="2px" d="M4214.7 525.172l-8.912-14.956-3.535 2.238 3.265-14.348 13.987 3.713-3.632 2.394 4.2 6.964a4.484 4.484 0 0 1 0 4.937l-7.2 12.351c-1.921 3.241-5.882 2.881-5.882 2.881h-12.006"/>
        </g>
        <g id="그룹_3226">
            <path id="패스_4523" d="M4172.978 519.476l17.409.136-.08-4.183 10.575 10.233-10.428 10.038-.164-4.347-8.133-.019a4.48 4.48 0 0 1-4.221-2.56l-6.825-12.564c-1.775-3.323.587-6.524.587-6.524l6.226-10.265" class="cls-2"/>
        </g>
        <g id="그룹_3227">
            <path id="패스_4524" d="M4199.179 485.9l-8.586 15.146 3.694 1.965-14.084 4.262-3.7-13.991 3.878 1.971 3.972-7.1a4.482 4.482 0 0 1 4.291-2.443l14.3.148c3.767.065 5.415 3.686 5.415 3.686l1.971 3.462" class="cls-2"/>
        </g>
        <g id="그룹_3229">
            <path id="패스_4522-2" fill="#888" stroke="#888" stroke-linecap="round" stroke-linejoin="round" stroke-width="2px" d="M4214.7 525.172l-8.912-14.956-3.535 2.238 3.265-14.348 13.987 3.713-3.632 2.394 4.2 6.964a4.484 4.484 0 0 1 0 4.937l-7.2 12.351"/>
        </g>
    </g>
</svg>
