<svg xmlns="http://www.w3.org/2000/svg" id="icon_07" width="64" height="64" viewBox="0 0 64 64">
    <defs>
        <style>
            .cls-2{fill:none;stroke:#000;stroke-linecap:round;stroke-linejoin:round;stroke-width:2px}
        </style>
    </defs>
    <g id="그룹_3234" transform="translate(-4061.255 -980.02)">
        <g id="그룹_3235">
            <path id="선_43" d="M0 0L0 35.846" class="cls-2" transform="translate(4093.884 992.48)"/>
            <path id="패스_4532" d="M4076.511 992.48h34.745" class="cls-2"/>
            <path id="패스_4533" d="M4070.841 1012.276c0-.058 5.7-19.8 5.7-19.8l5.641 19.8" class="cls-2"/>
            <path id="패스_4534" d="M4068.255 1012.276a8.256 8.256 0 0 0 16.512 0z" class="cls-2"/>
            <path id="패스_4535" d="M4105.586 1012.276c0-.058 5.7-19.8 5.7-19.8l5.641 19.8" class="cls-2"/>
            <path id="패스_4536" d="M4103 1012.276a8.256 8.256 0 0 0 16.512 0z" class="cls-2"/>
            <rect id="사각형_12297" width="27.346" height="5.165" class="cls-2" rx="1.829" transform="translate(4080.211 1031.971)"/>
            <path id="패스_4537" d="M4085.41 1031.547v-1.277a1.95 1.95 0 0 1 1.944-1.944h13.059a1.95 1.95 0 0 1 1.944 1.944v1.277" class="cls-2"/>
        </g>
        <circle id="타원_152" cx="4.5" cy="4.5" r="4.5" fill="#888" stroke="#888" stroke-width="2px" transform="translate(4089.255 988.02)"/>
    </g>
</svg>
