<?xml version="1.0" encoding="utf-8"?>
<!-- Generator: Adobe Illustrator 24.1.1, SVG Export Plug-In . SVG Version: 6.00 Build 0)  -->
<svg version="1.1" id="레이어_1" xmlns="http://www.w3.org/2000/svg" xmlns:xlink="http://www.w3.org/1999/xlink" x="0px"
	 y="0px" viewBox="0 0 74 74" style="enable-background:new 0 0 74 74;" xml:space="preserve">
<style type="text/css">
	.st0{fill:none;stroke:#262C32;stroke-width:2.5;}
	.st1{fill:#FFFFFF;}
	.st2{fill:#FFFFFF;stroke:#262C32;stroke-width:2.5;}
	.st3{fill:none;}
</style>
<g>
	<polyline class="st0" points="5.8,38.5 5.8,33.8 5.8,29.1 13.9,29.1 21.9,29.1 29.9,29.1 37.9,29.1 45.9,29.1 54,29.1 62,29.1 
		70,29.1 70,33.8 70,38.5 70,43.3 70,48.1 70,52.9 70,57.7 70,62.5 70,67.2 62,67.2 54,67.2 45.9,67.2 37.9,67.2 29.9,67.2 
		21.9,67.2 13.9,67.2 5.8,67.2 5.8,62.5 5.8,57.7 5.8,52.9 	"/>
	<g>
		<g>
			<path class="st1" d="M37.9,64.4v-4.2h-4.8C35.7,60.1,37.9,62,37.9,64.4z"/>
			<path class="st1" d="M20.6,28h-8.2c-0.1,0-0.2,0-0.4,0v32.1c0.1,0,0.2,0,0.4,0h7.9V28C20.4,28,20.4,28,20.6,28z"/>
			<path class="st1" d="M20.3,60.1c0.1,0,0.2,0,0.4,0H20.3L20.3,60.1z"/>
			<path class="st1" d="M33.1,28H20.6c-0.1,0-0.2,0-0.4,0v32.1h0.4h12.5h4.8V32.2C37.9,29.8,35.7,28,33.1,28z"/>
		</g>
		<g>
			<g>
				<path class="st2" d="M12.4,28h20.7c2.7,0,4.8,1.8,4.8,4.2v32.1c0-2.3-2.2-4.2-4.8-4.2H12.4c-0.1,0-0.2,0-0.4,0V28
					C12.2,28,12.3,28,12.4,28z"/>
			</g>
		</g>
		<g>
			<path class="st1" d="M49.5,28h-6.6c-2.7,0-4.8,1.8-4.8,4.2v32.1c0-2.3,2.2-4.2,4.8-4.2h1.8V32.2C44.5,29.8,46.8,28,49.5,28z"/>
			<path class="st1" d="M63.7,60.1L63.7,60.1h-0.4C63.6,60.1,63.6,60.1,63.7,60.1z"/>
			<path class="st1" d="M44.5,64.4c0-2.3,2.2-4.2,4.8-4.2h-4.8V64.4z"/>
			<path class="st1" d="M63.5,28h-14c-2.7,0-4.8,1.8-4.8,4.2v27.9h4.8h14h0.4V28C63.6,28,63.6,28,63.5,28z"/>
		</g>
		<path class="st2" d="M63.5,28H42.8c-2.7,0-4.8,1.8-4.8,4.2v32.1c0-2.3,2.2-4.2,4.8-4.2h20.7c0.1,0,0.2,0,0.4,0V28
			C63.6,28,63.6,28,63.5,28z"/>
	</g>
	<g>
		<g>
			<line class="st0" x1="19" y1="34.9" x2="26.1" y2="34.9"/>
			<line class="st0" x1="19" y1="41.6" x2="26.1" y2="41.6"/>
			<line class="st0" x1="19" y1="48.4" x2="26.1" y2="48.4"/>
		</g>
		<g>
			<line class="st0" x1="49.7" y1="34.9" x2="56.8" y2="34.9"/>
			<line class="st0" x1="49.7" y1="41.6" x2="56.8" y2="41.6"/>
			<line class="st0" x1="49.7" y1="48.4" x2="56.8" y2="48.4"/>
		</g>
	</g>
	<line class="st0" x1="5.8" y1="48.1" x2="5.8" y2="43.3"/>
	<g>
		<g>
			<path class="st3" d="M42.7,5.3C42.6,5.3,42.6,5.3,42.7,5.3c-0.1,0-0.1,0-0.1,0s0,0-0.1,0c0,0,0,0-0.1,0c0,0,0,0-0.1,0
				c0,0,0,0-0.1,0c0,0,0,0-0.1,0c0,0,0,0-0.1,0l0,0l0,0l0,0l0,0l0,0l0,0l0,0l0,0l0,0l0,0l0,0l0,0l0,0H42.7L42.7,5.3L42.7,5.3z"/>
			<path class="st3" d="M34.7,11.7c-0.2-0.2-0.4-0.5-0.6-0.7c-0.1-0.2-0.4-0.5-0.4-0.7c-0.1-0.2-0.2-0.5-0.2-0.9
				c-0.1-0.2-0.1-0.6-0.1-0.9c0-0.2,0-0.6,0-0.9c0-0.2,0.1-0.6,0.1-0.9c0.1-0.2,0.2-0.5,0.4-0.9c0.1-0.2,0.2-0.5,0.5-0.7
				c-0.1,0-0.4,0-0.5,0c-0.1,0-0.4,0-0.5,0c-0.1,0-0.4,0-0.5,0.1c-0.1,0-0.4,0.1-0.5,0.1c-0.1,0-0.4,0.1-0.5,0.2
				c-0.1,0.1-0.4,0.1-0.5,0.2c-0.1,0.1-0.4,0.2-0.5,0.4c-0.1,0.1-0.2,0.2-0.4,0.4c-0.2,0.2-0.5,0.5-0.6,0.7
				c-0.1,0.2-0.4,0.5-0.5,0.9c-0.1,0.2-0.2,0.6-0.2,0.9c0,0.2-0.1,0.6-0.1,1c0,0.4,0,0.6,0.1,1c0,0.2,0.1,0.6,0.2,0.9
				c0.1,0.2,0.2,0.6,0.5,0.9c0.1,0.2,0.4,0.5,0.6,0.7l0.1,0.1l0.1,0.1l0.1,0.1l0.1,0.1l0.1,0.1l0.1,0.1l0.1,0.1l0.1,0.1l0.9,0.9
				l0.9,0.9l0.9,0.9l0.9,0.9l0.9,0.9l0.9,0.9l0.9,0.9l0.9,0.9l0.4-0.4l0.4-0.4l0.4-0.4l0.4-0.4l0.4-0.4l0.4-0.4l0.4-0.4l0.4-0.4
				l-1-1l-0.7-0.7L38.9,16l-0.7-0.7l-0.7-0.7L36.8,14l-0.7-0.7l-0.6-0.6l-0.1-0.1l-0.1-0.1l-0.1-0.1l-0.1-0.1L34.8,12l-0.1-0.1
				L34.7,11.7L34.7,11.7z"/>
		</g>
		<path class="st0" d="M45.5,6.8c-0.2-0.2-0.5-0.5-0.7-0.6c-0.2-0.1-0.5-0.4-0.9-0.5c-0.2-0.1-0.6-0.2-0.9-0.2c-0.2,0-0.6-0.1-1-0.1
			s-0.6,0-1,0.1c-0.2,0-0.6,0.1-0.9,0.2C40,5.8,39.6,6,39.4,6.2c-0.2,0.1-0.5,0.4-0.7,0.6l-0.1,0.1l-0.1,0.1l-0.1,0.1l-0.1,0.1
			L38,7.4l-0.1,0.1L38,7.4l-0.1,0.1l-0.1-0.1l-0.1-0.1l-0.1-0.1l-0.1-0.1l-0.1-0.1l-0.1-0.1L37,6.7l-0.1-0.1
			c-0.2-0.2-0.5-0.5-0.7-0.6c-0.2-0.1-0.5-0.4-0.9-0.5c-0.2-0.1-0.6-0.2-0.9-0.2c-0.2,0-0.6-0.1-1-0.1s-0.6,0-1,0.1
			c-0.2,0-0.6,0.1-0.9,0.2C31.4,5.6,31,5.7,30.8,6c-0.2,0.1-0.5,0.4-0.7,0.6c-0.2,0.2-0.5,0.5-0.6,0.7c-0.1,0.2-0.4,0.5-0.5,0.9
			c-0.1,0.2-0.2,0.6-0.2,0.9s-0.1,0.6-0.1,1c0,0.4,0,0.6,0.1,1c0,0.2,0.1,0.6,0.2,0.9c0.1,0.2,0.2,0.6,0.5,0.9
			c0.1,0.2,0.4,0.5,0.6,0.7l0.1,0.1l0.1,0.1l0.1,0.1l0.1,0.1l0.1,0.1l0.1,0.1l0.1,0.1l0.1,0.1l0.9,0.9l0.9,0.9l0.9,0.9l0.9,0.9
			l0.9,0.9l0.9,0.9l0.9,0.9l0.9,0.9l0.9-0.9l0.9-0.9l0.9-0.9l0.9-0.9l0.9-0.9l0.9-0.9l0.9-0.9l0.9-0.9l0.1-0.1l0.1-0.1l0.1-0.1
			l0.1-0.1l0.1-0.1l0,0l0.1-0.1l0.1-0.1c0.2-0.2,0.5-0.5,0.6-0.7c0.1-0.2,0.4-0.5,0.5-0.9c0.1-0.2,0.2-0.6,0.2-0.9
			c0-0.2,0.1-0.6,0.1-1c0-0.4,0-0.6-0.1-1c0-0.2-0.1-0.6-0.2-0.9c-0.1-0.2-0.2-0.6-0.5-0.9C46,7.3,45.8,7.1,45.5,6.8z"/>
	</g>
</g>
</svg>
