<?xml version="1.0" encoding="utf-8"?>
<!-- Generator: Adobe Illustrator 24.1.1, SVG Export Plug-In . SVG Version: 6.00 Build 0)  -->
<svg version="1.1" id="레이어_1" xmlns="http://www.w3.org/2000/svg" xmlns:xlink="http://www.w3.org/1999/xlink" x="0px"
	 y="0px" viewBox="0 0 74 74" style="enable-background:new 0 0 74 74;" xml:space="preserve">
<style type="text/css">
	.st0{fill:#FFFFFF;}
	.st1{fill:#98B2E1;}
	.st2{fill:#FFFFFF;stroke:#262C32;stroke-width:2.5;}
	.st3{fill:none;stroke:#262C32;stroke-width:2.5;}
</style>
<g>
	<path class="st0" d="M18.4,45c0-10.8,7.1-19.9,16.7-23.1c-2.4-0.8-5-1.3-7.7-1.3C14,20.6,3,31.5,3,45S14,69.4,27.4,69.4
		c2.7,0,5.3-0.4,7.7-1.3C25.5,65,18.4,55.8,18.4,45z"/>
	<path class="st1" d="M51.9,45c0-10.8-7.1-19.9-16.7-23.1C25.5,25.1,18.6,34.2,18.6,45s7.1,19.9,16.7,23.2C45,65,51.9,55.8,51.9,45z
		"/>
</g>
<g>
	<path class="st2" d="M15.1,45H3.2c0,13.5,10.9,24.4,24.4,24.4C20.8,69.4,15.1,58.5,15.1,45z"/>
	<path class="st2" d="M14,24.9c-1.3,0.9-2.6,1.9-3.6,3"/>
	<path class="st2" d="M7.3,31.4c-0.9,1.3-1.7,2.7-2.3,4.1c-0.6,1.4-1.2,3-1.4,4.6C3.2,41.7,3,43.3,3,45h1.5h1.5h1.5h1.5h1.5h1.5h1.5
		h1.5c0-1.7,0.1-3.3,0.3-4.9c0.1-1.5,0.4-3.1,0.8-4.6c0.3-1.4,0.6-2.8,1.2-4.1c0.4-1.3,0.9-2.6,1.5-3.6c0.5-1.2,1.2-2.1,1.8-3
		c0.6-0.9,1.4-1.7,2.1-2.3c0.8-0.6,1.5-1.2,2.3-1.4c0.8-0.4,1.7-0.5,2.6-0.5c-1.7,0-3.3,0.1-4.9,0.5c-1.5,0.4-3.1,0.8-4.6,1.4"/>
	<path class="st2" d="M27.6,20.6C34.4,20.6,40,31.5,40,45h11.9C51.9,31.5,41,20.6,27.6,20.6z"/>
	<path class="st2" d="M27.6,69.4C41,69.4,51.9,58.5,51.9,45H40C40,58.5,34.5,69.4,27.6,69.4z"/>
	<path class="st2" d="M40,45c0-13.5-5.5-24.4-12.4-24.4V45H40z"/>
	<path class="st2" d="M40,45H27.6v24.4C34.5,69.4,40,58.5,40,45z"/>
	<path class="st2" d="M15.1,45h12.4V20.6C20.8,20.6,15.1,31.5,15.1,45z"/>
	<path class="st2" d="M15.1,45c0,13.5,5.5,24.4,12.4,24.4V45H15.1z"/>
</g>
<g>
	<g>
		<path class="st0" d="M43.2,27V9.9c0-2.2,1.7-3.9,3.9-3.9h-9c-2.2,0-3.9,1.7-3.9,3.9V27c0,2.2,1.7,3.9,3.9,3.9h7.6v7.8l8.6-7.8
			h-7.2C44.9,30.9,43.2,29.2,43.2,27z"/>
		<polygon class="st0" points="54.6,38.7 63.2,30.9 54.6,30.9 		"/>
		<path class="st0" d="M69.7,27V9.9C69.7,7.7,68,6,65.8,6H47.1c-2.2,0-3.9,1.7-3.9,3.9V27c0,2.2,1.7,3.9,3.9,3.9h7.2h0.4h8.6h2.6
			C68,30.9,69.7,29.2,69.7,27z"/>
	</g>
	<path class="st2" d="M65.8,6H38.1c-2.2,0-3.9,1.7-3.9,3.9V27c0,2.2,1.7,3.9,3.9,3.9h7.6v7.8l8.6-7.8h11.6c2.2,0,3.9-1.7,3.9-3.9
		V9.9C69.7,7.7,68,6,65.8,6z"/>
	<g>
		<line class="st3" x1="45.3" y1="15.1" x2="58.6" y2="15.1"/>
		<line class="st3" x1="45.3" y1="21.5" x2="58.6" y2="21.5"/>
	</g>
</g>
<path class="st2" d="M65.5,41.4c0,1.7-1.3,3-3,3c-1.7,0-3-1.3-3-3s1.3-3,3-3C64.1,38.5,65.5,39.8,65.5,41.4z"/>
<path class="st2" d="M65.5,53.9c0,1.7-1.3,3-3,3c-1.7,0-3-1.3-3-3s1.3-3,3-3C64.1,50.9,65.5,52.2,65.5,53.9z"/>
<g>
	<g>
		<line class="st3" x1="22.4" y1="6.1" x2="22.4" y2="9.7"/>
		<line class="st3" x1="22.4" y1="13.4" x2="22.4" y2="17"/>
	</g>
	<g>
		<line class="st3" x1="27.8" y1="11.5" x2="24.2" y2="11.5"/>
		<line class="st3" x1="20.5" y1="11.5" x2="16.9" y2="11.5"/>
	</g>
</g>
</svg>
